<svg width="290" height="192" viewBox="0 0 290 192" fill="none" xmlns="http://www.w3.org/2000/svg">
<g clip-path="url(#clip0_5467_41469)">
<path fill-rule="evenodd" clip-rule="evenodd" d="M137.728 118.282C140.374 118.282 142.521 116.141 142.521 113.483V78.045C142.521 75.4056 140.374 73.2461 137.728 73.2461H70.3368C67.6919 73.2461 65.5469 75.4056 65.5469 78.045V113.483C65.5469 116.141 67.6919 118.282 70.3368 118.282H137.728ZM85.537 83.582L84.7671 88.787L78.0469 88.7685L78.623 83.582H85.537ZM96.4476 83.6797L96.9865 88.7923H88.4609L91.1596 83.6797H96.4476ZM109.861 83.6797L108.102 88.7923H101.32L102.948 83.6797H109.861ZM100.671 90.8132L98.0648 98.9897L97.1917 90.7024L87.6291 90.3518L83.3302 98.4729L84.5521 90.241L77.9132 90.0195L75.9844 107.388H85.1057L92.0735 93.2865L93.4929 107.388H101.691L107.319 91.0531L100.671 90.8132ZM124.707 83.6797H111.632L109.93 88.7923H121.724C124.978 88.8846 126.578 91.5425 125.477 94.8279C124.358 98.1686 121.093 100.716 117.376 100.882C117.154 100.895 116.967 100.91 116.792 100.923C116.214 100.969 115.777 101.004 114.734 100.919L117.953 91.4317L109.151 91.118L103.727 107.397H116.8C123.376 107.397 130.578 102.211 132.801 95.5477C135.019 88.8661 131.311 83.6797 124.707 83.6797Z" fill="#BBC4D2"></path>
<path d="M157.616 76.9961H161.776L164.772 89.9162H164.818L167.577 76.9961H171.101L166.721 94.1613H162.631L159.541 81.0936H159.493L156.167 94.1613H151.981L147.797 76.9961H151.601L154.238 89.9162H154.288L157.616 76.9961Z" fill="#BBC4D2"></path>
<path d="M173.777 89.1617C173.777 90.6937 173.98 92.1518 175.808 92.1518C177.063 92.1518 177.672 91.6903 178.004 90.6013H181.216C180.902 93.5545 178.595 94.5328 175.808 94.5328C171.729 94.5328 170.086 92.2256 170.086 88.2204C170.086 84.6397 172.172 81.8711 175.808 81.8711C178.059 81.8711 179.905 82.6278 180.902 84.732C181.234 85.3964 181.4 86.0978 181.492 86.873C181.585 87.6113 181.585 88.3681 181.585 89.1617H173.777ZM177.912 86.7807C177.912 85.4703 177.543 84.2521 175.808 84.2521C174.183 84.2521 173.814 85.4703 173.777 86.7807H177.912Z" fill="#BBC4D2"></path>
<path d="M189.353 85.4149C189.298 84.6028 188.541 84.2521 187.729 84.2521C186.751 84.2521 186.308 84.5474 186.308 85.3226C186.308 87.2052 193.118 86.1347 193.118 90.6013C193.118 93.2038 189.944 94.5328 187.729 94.5328C184.942 94.5328 182.524 93.4253 182.469 90.6937H185.773C185.846 91.6165 186.677 92.1518 187.729 92.1518C188.707 92.1518 189.446 91.7457 189.446 90.8228C189.446 89.863 187.729 89.457 187.009 89.2909C184.739 88.7372 182.616 88.2388 182.616 85.4703C182.616 82.9601 185.643 81.8711 187.729 81.8711C190.258 81.8711 192.38 82.7755 192.546 85.4149H189.353Z" fill="#BBC4D2"></path>
<path d="M194.662 82.2405V79.878L198.224 78.5859V82.2405H200.919V84.603H198.224V90.1586C198.224 91.7091 198.464 92.152 199.701 92.152C200.088 92.152 200.458 92.0967 200.845 92.0782V94.1639C200.439 94.3485 198.538 94.533 198.04 94.533C195.252 94.533 194.662 93.0749 194.662 90.4909V84.603H193.352V82.2405H194.662Z" fill="#BBC4D2"></path>
<path d="M204.996 89.1617C204.996 90.6937 205.218 92.1518 207.045 92.1518C208.281 92.1518 208.891 91.6903 209.223 90.6013H212.434C212.139 93.5545 209.832 94.5328 207.045 94.5328C202.947 94.5328 201.305 92.2256 201.305 88.2204C201.305 84.6397 203.409 81.8711 207.045 81.8711C209.278 81.8711 211.142 82.6278 212.139 84.732C212.471 85.3964 212.637 86.0978 212.729 86.873C212.822 87.6113 212.822 88.3681 212.822 89.1617H204.996ZM209.13 86.7807C209.13 85.4703 208.78 84.2521 207.045 84.2521C205.402 84.2521 205.051 85.4703 204.996 86.7807H209.13Z" fill="#BBC4D2"></path>
<path d="M220.101 85.2502C219.511 85.3056 218.717 85.6378 218.366 86.1362C217.979 86.8006 217.905 87.4651 217.887 88.2403V94.1651H214.343L214.325 84.6042C214.325 84.1059 214.251 83.1092 214.195 82.2417H217.462L217.536 84.4012H217.573C218.348 82.5185 219.862 82.0387 221.652 82.094L220.101 85.2502Z" fill="#BBC4D2"></path>
<path d="M226.122 83.6061L226.178 83.6799C226.916 82.5909 228.042 81.8711 229.832 81.8711C231.032 81.8711 233.339 82.757 233.763 84.492C233.948 85.2303 234.003 85.987 234.003 86.3931V94.1636H230.441V86.9837C230.404 85.7102 230.054 84.2521 228.3 84.2521C227.174 84.2521 226.196 85.2488 226.159 86.9837V94.1636H222.578V82.2402H226.122V83.6061Z" fill="#BBC4D2"></path>
<path d="M149.102 97.5941H154.951C160.296 97.5572 163.627 100.215 163.627 106.177C163.627 112.157 160.296 114.815 154.951 114.759H149.102V97.5941ZM152.786 111.917H154.687C159.061 111.954 159.705 108.927 159.705 106.177C159.705 103.445 159.061 100.418 154.687 100.455H152.786V111.917Z" fill="#BBC4D2"></path>
<path d="M165.125 97.5938H168.938V100.658H165.125V97.5938ZM165.245 102.836H168.809V114.777H165.245V102.836Z" fill="#BBC4D2"></path>
<path d="M182.173 113.709C182.173 116.478 181.564 119.523 176.322 119.486C173.682 119.486 170.858 118.84 170.785 115.629H174.162C174.218 116.699 175.159 117.105 176.137 117.105C178.851 117.105 178.758 114.632 178.61 112.897H178.555C177.817 114.06 176.562 114.54 175.214 114.54C171.966 114.54 170.305 111.494 170.305 108.597C170.305 105.551 172.04 102.469 175.381 102.469C176.968 102.469 177.983 103.004 178.555 104.222H178.61V102.838H182.173V113.709ZM176.303 112.159C178.26 112.159 178.61 110.165 178.61 108.615C178.61 106.862 178.26 104.85 176.303 104.85C174.347 104.85 173.996 106.862 173.996 108.615C173.996 110.165 174.347 112.159 176.303 112.159Z" fill="#BBC4D2"></path>
<path d="M184.195 97.5938H187.997V100.658H184.195V97.5938ZM184.306 102.836H187.887V114.777H184.306V102.836Z" fill="#BBC4D2"></path>
<path d="M190.468 102.843V100.481L194.03 99.207V102.843H196.725V105.224H194.03V110.761C194.03 112.33 194.27 112.755 195.507 112.755C195.895 112.755 196.264 112.699 196.651 112.681V114.767C196.245 114.97 194.344 115.136 193.846 115.136C191.059 115.136 190.468 113.678 190.468 111.093V105.224H189.047V102.843H190.468Z" fill="#BBC4D2"></path>
<path d="M198.082 106.216C198.119 104.721 198.765 103.779 199.707 103.244C200.685 102.672 201.94 102.469 203.232 102.469C205.631 102.469 208.307 103.355 208.307 106.954V113.469C208.345 114.06 208.437 114.411 208.474 114.761H205.262C205.207 114.226 205.152 113.672 205.152 113.174H205.096C204.302 114.558 203.066 115.13 201.442 115.13C199.208 115.13 197.547 113.838 197.547 111.513C197.547 110.682 197.916 108.652 200.094 107.729C201.515 107.12 203.324 107.046 204.745 107.083V105.976C204.745 105.477 204.376 104.499 203.103 104.499C201.866 104.499 201.46 105.662 201.515 106.216H198.082ZM200.962 111.033C200.962 112.03 201.7 112.749 202.697 112.749C204.672 112.749 204.745 110.553 204.745 109.15C203.509 109.132 200.962 109.113 200.962 111.033Z" fill="#BBC4D2"></path>
<path fill-rule="evenodd" clip-rule="evenodd" d="M214.097 97.5938V114.759H210.531V97.5938H214.097Z" fill="#BBC4D2"></path>
<path d="M215.914 99.6075C215.914 98.1862 217.077 97.0234 218.516 97.0234C219.937 97.0234 221.082 98.1862 221.082 99.6075C221.082 101.047 219.937 102.21 218.516 102.21C217.077 102.21 215.914 101.047 215.914 99.6075ZM220.639 99.6075C220.639 98.4447 219.679 97.4848 218.516 97.4848C217.316 97.4848 216.375 98.4447 216.375 99.6075C216.375 100.789 217.316 101.748 218.516 101.748C219.679 101.748 220.639 100.789 220.639 99.6075ZM217.963 99.7735V101.103H217.483V98.057H218.461C219.033 98.057 219.605 98.2047 219.605 98.8876C219.605 99.2383 219.384 99.5152 218.978 99.6075C219.402 99.6997 219.458 99.8843 219.495 100.217C219.55 100.512 219.568 100.826 219.679 101.103H219.07C219.033 100.918 218.996 100.733 218.978 100.549C218.941 100.29 218.941 100.05 218.793 99.9028C218.682 99.7735 218.516 99.792 218.35 99.7735H217.963ZM218.461 99.3121C218.904 99.2937 219.015 99.1091 219.015 98.8692C219.015 98.6477 218.904 98.5185 218.535 98.5185H217.963V99.3121H218.461Z" fill="#BBC4D2"></path>
</g>
<defs>
<clipPath id="clip0_5467_41469">
<rect width="168.454" height="46.2358" fill="white" transform="translate(65.5469 73.2695)"></rect>
</clipPath>
</defs>
</svg>
